HIERARCHY
ROOT Hips
{
  OFFSET 5.80788e-005 67.184 3.4734
  CHANNELS 6 Xposition Yposition Zposition Zrotation Xrotation Yrotation
  JOINT Chest
  {
    OFFSET 0 8.7983 -4.7612
    CHANNELS 6 Xposition Yposition Zposition Zrotation Xrotation Yrotation
    JOINT Chest2
    {
      OFFSET 0 8.0291 0.4195
      CHANNELS 6 Xposition Yposition Zposition Zrotation Xrotation Yrotation
      JOINT Chest3
      {
        OFFSET 0 9.9351 -2.2114
        CHANNELS 6 Xposition Yposition Zposition Zrotation Xrotation Yrotation
        JOINT Neck
        {
          OFFSET 0 22.3885 -0.4656
          CHANNELS 6 Xposition Yposition Zposition Zrotation Xrotation Yrotation
          JOINT Head
          {
            OFFSET -0.0001 12.643 3.4389
            CHANNELS 6 Xposition Yposition Zposition Zrotation Xrotation Yrotation
            End Site
            {
              OFFSET 0.0001 17.6655 0.5274
            }
          }
        }
        JOINT LeftCollar
        {
          OFFSET 2.2603 21.606 7.4023
          CHANNELS 6 Xposition Yposition Zposition Zrotation Xrotation Yrotation
          JOINT LeftShoulder
          {
            OFFSET 13.5163 -1.1332 -5.0146
            CHANNELS 6 Xposition Yposition Zposition Zrotation Xrotation Yrotation
            JOINT LeftElbow
            {
              OFFSET -0.0995 -28.05 -0.2431
              CHANNELS 6 Xposition Yposition Zposition Zrotation Xrotation Yrotation
              JOINT LeftWrist
              {
                OFFSET 0.0679 -23.3996 -0.1402
                CHANNELS 6 Xposition Yposition Zposition Zrotation Xrotation Yrotation
                JOINT LeftFinger1
                {
                  OFFSET 0.7932 -9.069 2.5189
                  CHANNELS 6 Xposition Yposition Zposition Zrotation Xrotation Yrotation
                  JOINT LeftFinger11
                  {
                    OFFSET -0.8272 -3.3923 0.5977
                    CHANNELS 6 Xposition Yposition Zposition Zrotation Xrotation Yrotation
                    JOINT LeftFinger12
                    {
                      OFFSET -0.5649 -2.3158 0.4082
                      CHANNELS 6 Xposition Yposition Zposition Zrotation Xrotation Yrotation
                      End Site
                      {
                        OFFSET -0.4919 -1.6479 0.2673
                      }
                    }
                  }
                }
                JOINT LeftFinger2
                {
                  OFFSET 0.9159 -9.2044 0.2193
                  CHANNELS 6 Xposition Yposition Zposition Zrotation Xrotation Yrotation
                  JOINT LeftFinger21
                  {
                    OFFSET 0.0117 -4.1944 -0.0248
                    CHANNELS 6 Xposition Yposition Zposition Zrotation Xrotation Yrotation
                    JOINT LeftFinger22
                    {
                      OFFSET 0.0071 -2.3249 -0.0142
                      CHANNELS 6 Xposition Yposition Zposition Zrotation Xrotation Yrotation
                      End Site
                      {
                        OFFSET -0.1475 -2.0882 0.0028
                      }
                    }
                  }
                }
                JOINT LeftFinger3
                {
                  OFFSET 0.6113 -8.7231 -2.0637
                  CHANNELS 6 Xposition Yposition Zposition Zrotation Xrotation Yrotation
                  JOINT LeftFinger31
                  {
                    OFFSET -0.1927 -3.8059 -0.2383
                    CHANNELS 6 Xposition Yposition Zposition Zrotation Xrotation Yrotation
                    JOINT LeftFinger32
                    {
                      OFFSET -0.1091 -2.1688 -0.1362
                      CHANNELS 6 Xposition Yposition Zposition Zrotation Xrotation Yrotation
                      End Site
                      {
                        OFFSET -0.2358 -1.9176 -0.0906
                      }
                    }
                  }
                }
                JOINT LeftFinger4
                {
                  OFFSET -0.6151 -8.0947 -3.5641
                  CHANNELS 6 Xposition Yposition Zposition Zrotation Xrotation Yrotation
                  JOINT LeftFinger41
                  {
                    OFFSET -0.4882 -2.341 -0.6462
                    CHANNELS 6 Xposition Yposition Zposition Zrotation Xrotation Yrotation
                    JOINT LeftFinger42
                    {
                      OFFSET -0.3575 -1.7167 -0.4742
                      CHANNELS 6 Xposition Yposition Zposition Zrotation Xrotation Yrotation
                      End Site
                      {
                        OFFSET -0.4187 -1.5237 -0.3496
                      }
                    }
                  }
                }
                JOINT LeftFinger0
                {
                  OFFSET -1.42 -1.8761 1.4223
                  CHANNELS 6 Xposition Yposition Zposition Zrotation Xrotation Yrotation
                  JOINT LeftFinger01
                  {
                    OFFSET -1.1471 -3.4929 2.6334
                    CHANNELS 6 Xposition Yposition Zposition Zrotation Xrotation Yrotation
                    JOINT LeftFinger02
                    {
                      OFFSET -0.823 -2.3 1.6571
                      CHANNELS 6 Xposition Yposition Zposition Zrotation Xrotation Yrotation
                      End Site
                      {
                        OFFSET -0.5822 -1.6914 1.1582
                      }
                    }
                  }
                }
              }
            }
          }
        }
        JOINT RightCollar
        {
          OFFSET -2.2603 21.606 7.4023
          CHANNELS 6 Xposition Yposition Zposition Zrotation Xrotation Yrotation
          JOINT RightShoulder
          {
            OFFSET -13.5187 -1.1334 -5.0155
            CHANNELS 6 Xposition Yposition Zposition Zrotation Xrotation Yrotation
            JOINT RightElbow
            {
              OFFSET 0.0994 -28.0499 -0.2431
              CHANNELS 6 Xposition Yposition Zposition Zrotation Xrotation Yrotation
              JOINT RightWrist
              {
                OFFSET -0.0679 -23.3996 -0.1402
                CHANNELS 6 Xposition Yposition Zposition Zrotation Xrotation Yrotation
                JOINT RightFinger1
                {
                  OFFSET -0.7932 -9.0691 2.5189
                  CHANNELS 6 Xposition Yposition Zposition Zrotation Xrotation Yrotation
                  JOINT RightFinger11
                  {
                    OFFSET 0.8272 -3.3923 0.5977
                    CHANNELS 6 Xposition Yposition Zposition Zrotation Xrotation Yrotation
                    JOINT RightFinger12
                    {
                      OFFSET 0.565 -2.3158 0.4082
                      CHANNELS 6 Xposition Yposition Zposition Zrotation Xrotation Yrotation
                      End Site
                      {
                        OFFSET 0.4919 -1.6479 0.2673
                      }
                    }
                  }
                }
                JOINT RightFinger2
                {
                  OFFSET -0.916 -9.2044 0.2193
                  CHANNELS 6 Xposition Yposition Zposition Zrotation Xrotation Yrotation
                  JOINT RightFinger21
                  {
                    OFFSET -0.0117 -4.1944 -0.0248
                    CHANNELS 6 Xposition Yposition Zposition Zrotation Xrotation Yrotation
                    JOINT RightFinger22
                    {
                      OFFSET -0.0071 -2.3249 -0.0142
                      CHANNELS 6 Xposition Yposition Zposition Zrotation Xrotation Yrotation
                      End Site
                      {
                        OFFSET 0.1475 -2.0882 0.0028
                      }
                    }
                  }
                }
                JOINT RightFinger3
                {
                  OFFSET -0.6113 -8.7231 -2.0637
                  CHANNELS 6 Xposition Yposition Zposition Zrotation Xrotation Yrotation
                  JOINT RightFinger31
                  {
                    OFFSET 0.1927 -3.8059 -0.2383
                    CHANNELS 6 Xposition Yposition Zposition Zrotation Xrotation Yrotation
                    JOINT RightFinger32
                    {
                      OFFSET 0.1091 -2.1688 -0.1362
                      CHANNELS 6 Xposition Yposition Zposition Zrotation Xrotation Yrotation
                      End Site
                      {
                        OFFSET 0.2358 -1.9176 -0.0906
                      }
                    }
                  }
                }
                JOINT RightFinger4
                {
                  OFFSET 0.6151 -8.0947 -3.564
                  CHANNELS 6 Xposition Yposition Zposition Zrotation Xrotation Yrotation
                  JOINT RightFinger41
                  {
                    OFFSET 0.4882 -2.341 -0.6462
                    CHANNELS 6 Xposition Yposition Zposition Zrotation Xrotation Yrotation
                    JOINT RightFinger42
                    {
                      OFFSET 0.3574 -1.7166 -0.4742
                      CHANNELS 6 Xposition Yposition Zposition Zrotation Xrotation Yrotation
                      End Site
                      {
                        OFFSET 0.4187 -1.5237 -0.3496
                      }
                    }
                  }
                }
                JOINT RightFinger0
                {
                  OFFSET 1.4199 -1.8761 1.4221
                  CHANNELS 6 Xposition Yposition Zposition Zrotation Xrotation Yrotation
                  JOINT RightFinger01
                  {
                    OFFSET 1.1472 -3.4929 2.6336
                    CHANNELS 6 Xposition Yposition Zposition Zrotation Xrotation Yrotation
                    JOINT RightFinger02
                    {
                      OFFSET 0.8229 -2.3 1.6571
                      CHANNELS 6 Xposition Yposition Zposition Zrotation Xrotation Yrotation
                      End Site
                      {
                        OFFSET 0.5822 -1.6914 1.1582
                      }
                    }
                  }
                }
              }
            }
          }
        }
      }
    }
  }
  JOINT RightHip
  {
    OFFSET -9.412 3.9771 -0.7758
    CHANNELS 6 Xposition Yposition Zposition Zrotation Xrotation Yrotation
    JOINT RightKnee
    {
      OFFSET -0.7531 -40.938 0
      CHANNELS 6 Xposition Yposition Zposition Zrotation Xrotation Yrotation
      JOINT RightAnkle
      {
        OFFSET 0 -40.1986 0
        CHANNELS 6 Xposition Yposition Zposition Zrotation Xrotation Yrotation
        JOINT RightToe
        {
          OFFSET 0 -4.4182 9.239
          CHANNELS 6 Xposition Yposition Zposition Zrotation Xrotation Yrotation
          End Site
          {
            OFFSET 0 0 6.1981
          }
        }
      }
    }
  }
  JOINT LeftHip
  {
    OFFSET 9.4119 3.9773 -0.7758
    CHANNELS 6 Xposition Yposition Zposition Zrotation Xrotation Yrotation
    JOINT LeftKnee
    {
      OFFSET 0.7532 -40.9383 0
      CHANNELS 6 Xposition Yposition Zposition Zrotation Xrotation Yrotation
      JOINT LeftAnkle
      {
        OFFSET 0 -40.1986 0
        CHANNELS 6 Xposition Yposition Zposition Zrotation Xrotation Yrotation
        JOINT LeftToe
        {
          OFFSET 0 -4.4182 9.239
          CHANNELS 6 Xposition Yposition Zposition Zrotation Xrotation Yrotation
          End Site
          {
            OFFSET 0 0 6.1981
          }
        }
      }
    }
  }
}
MOTION
Frames:	4
Frame Time:	0.0333333
39.8254 41.5639 18.7087 179.997 58.9947 -2.16486e-008 -7.10543e-015 8.7983 -4.7612 -0.0295674 9.08997 -0.0834105 -7.10543e-015 8.0291 0.4195 -0.0464276 18.18 -0.165185 -7.10543e-015 9.9351 -2.2114 -0.0464276 18.1801 -0.165185 0 22.3885 -0.4656 2.88739 -0.000609569 -0.562281 -0.0001 12.643 3.4389 -1.53091e-007 0.0604705 -2.59972e-007 2.2603 21.606 7.4023 -12.1076 -4.17891 -16.5664 13.5163 -1.1332 -5.0146 41.7091 12.6646 -35.4612 -0.0995 -28.05 -0.2431 0.401273 -14.9348 -35.8695 0.0679 -23.3996 -0.1402 2.593 -0.514116 7.77404 0.7932 -9.069 2.5189 1.59028e-015 0 5.96354e-016 -0.8272 -3.3923 0.5977 -4.17296e-006 1.46719e-005 3.26349e-006 -0.5649 -2.3158 0.4082 -7.95139e-016 0 -5.96354e-016 0.9159 -9.2044 0.2193 1.59028e-015 0 5.96354e-016 0.0117 -4.1944 -0.0248 -0.0127672 0.00232594 8.90055e-005 0.0071 -2.3249 -0.0142 -3.31043e-032 3.18055e-015 5.96354e-016 0.6113 -8.7231 -2.0637 1.59028e-015 0 5.96354e-016 -0.1927 -3.8059 -0.2383 -0.0160405 0.00300534 0.000859921 -0.1091 -2.1688 -0.1362 7.95139e-016 9.54166e-015 -5.56597e-015 -0.6151 -8.0947 -3.5641 1.59028e-015 0 5.96354e-016 -0.4882 -2.341 -0.6462 -0.0125542 0.00311256 0.00281413 -0.3575 -1.7167 -0.4742 7.95139e-016 -1.59028e-014 1.59028e-015 -1.42 -1.8761 1.4223 1.59028e-015 0 5.96354e-016 -1.1471 -3.4929 2.6334 -4.17296e-006 1.46719e-005 3.26349e-006 -0.823 -2.3 1.6571 -7.95139e-016 0 -5.96354e-016 -2.2603 21.606 7.4023 5.37721 -5.30858 10.2049 -13.5187 -1.1334 -5.0155 -35.0531 8.36252 39.0511 0.0994 -28.0499 -0.2431 1.56697 -19.31 36.2429 -0.0679 -23.3996 -0.1402 -2.32062 5.74382 -5.73713 -0.7932 -9.0691 2.5189 -1.59028e-015 3.18055e-015 7.95139e-016 0.8272 -3.3923 0.5977 -4.64214e-006 9.6959e-006 -1.17403e-006 0.565 -2.3158 0.4082 -1.59028e-015 -6.36111e-015 1.59028e-015 -0.916 -9.2044 0.2193 -1.59028e-015 3.18055e-015 7.95139e-016 -0.0117 -4.1944 -0.0248 0.0129146 0.00232052 -8.90761e-005 -0.0071 -2.3249 -0.0142 3.18055e-015 -3.18055e-015 -3.18055e-015 -0.6113 -8.7231 -2.0637 -1.59028e-015 3.18055e-015 7.95139e-016 0.1927 -3.8059 -0.2383 0.0163674 0.00306461 -0.000876697 0.1091 -2.1688 -0.1362 7.95139e-016 3.18055e-015 -3.97569e-016 0.6151 -8.0947 -3.564 -1.59028e-015 3.18055e-015 7.95139e-016 0.4882 -2.341 -0.6462 0.0145703 0.00369374 -0.00327131 0.3574 -1.7166 -0.4742 -1.59028e-015 -1.27222e-014 1.19271e-015 1.4199 -1.8761 1.4221 -1.59028e-015 3.18055e-015 7.95139e-016 1.1472 -3.4929 2.6336 -4.64214e-006 9.6959e-006 -1.17403e-006 0.8229 -2.3 1.6571 -1.59028e-015 -6.36111e-015 1.59028e-015 -9.412 3.9771 -0.7758 -51.6788 -73.4015 -81.659 -0.7531 -40.938 0 -1.57456 35.0705 42.1507 -1.42109e-014 -40.1986 0 -23.6321 -2.3073 -6.98566 7.10543e-015 -4.4182 9.23901 1.62034e-006 -6.99973e-008 1.3929e-007 9.4119 3.9773 -0.7758 54.5301 -71.6379 84.3128 0.7532 -40.9383 0 1.57416 34.9229 -42.1718 1.77636e-015 -40.1986 0 21.1291 -2.46252 5.78023 7.10543e-015 -4.4182 9.239 -4.26475e-006 -2.1926e-006 -1.76196e-007 
39.8262 41.5639 18.7085 179.997 58.9947 3.01462e-008 -7.10543e-015 8.7983 -4.7612 -0.0293842 9.03476 -0.0834891 7.10543e-015 8.0291 0.4195 -0.0461185 18.0696 -0.165367 7.10543e-015 9.9351 -2.2114 -0.0461186 18.0696 -0.165367 0 22.3885 -0.4656 3.03435 0.350798 -0.599861 -0.0001 12.643 3.4389 5.10326e-007 0.0601603 7.9258e-007 2.2603 21.606 7.4023 -12.3879 -4.01857 -16.4598 13.5163 -1.1332 -5.0146 41.9267 12.7067 -35.4961 -0.0995 -28.05 -0.2431 0.401467 -14.9349 -35.8695 0.0679 -23.3996 -0.1402 2.52958 -0.581969 7.64497 0.7932 -9.069 2.5189 -7.95139e-016 -6.36111e-015 5.1684e-015 -0.8272 -3.3923 0.5977 -4.92048e-006 -1.40781e-005 -2.26843e-006 -0.5649 -2.3158 0.4082 -3.18055e-015 -9.54166e-015 1.98785e-016 0.9159 -9.2044 0.2193 -7.95139e-016 -6.36111e-015 5.1684e-015 0.0117 -4.1944 -0.0248 -0.0128602 0.0023207 8.29173e-005 0.0071 -2.3249 -0.0142 1.59028e-015 -3.18055e-015 -3.18055e-015 0.6113 -8.7231 -2.0637 -7.95139e-016 -6.36111e-015 5.1684e-015 -0.1927 -3.8059 -0.2383 -0.0160499 0.00298107 0.000852257 -0.1091 -2.1688 -0.1362 1.59028e-015 3.18055e-015 5.96354e-016 -0.6151 -8.0947 -3.5641 -7.95139e-016 -6.36111e-015 5.1684e-015 -0.4882 -2.341 -0.6462 -0.0125719 0.00310309 0.00282579 -0.3575 -1.7167 -0.4742 -0 0 9.93923e-016 -1.42 -1.8761 1.4223 -7.95139e-016 -6.36111e-015 5.1684e-015 -1.1471 -3.4929 2.6334 -4.92048e-006 -1.40781e-005 -2.26843e-006 -0.823 -2.3 1.6571 -3.18055e-015 -9.54166e-015 1.98785e-016 -2.2603 21.606 7.4023 5.62548 -5.11755 10.1094 -13.5187 -1.1334 -5.0155 -35.241 8.38443 39.0649 0.0994 -28.0499 -0.2431 1.56674 -19.3101 36.2428 -0.0679 -23.3996 -0.1402 -2.28155 5.67794 -5.61088 -0.7932 -9.0691 2.5189 -4.77083e-015 0 1.31198e-014 0.8272 -3.3923 0.5977 -7.15625e-015 3.18055e-015 9.54166e-015 0.565 -2.3158 0.4082 -1.86437e-006 1.36678e-006 -1.79533e-006 -0.916 -9.2044 0.2193 -4.77083e-015 0 1.31198e-014 -0.0117 -4.1944 -0.0248 0.0129934 0.00232197 -8.89967e-005 -0.0071 -2.3249 -0.0142 -8.82781e-032 -3.18055e-015 -1.59028e-015 -0.6113 -8.7231 -2.0637 -4.77083e-015 0 1.31198e-014 0.1927 -3.8059 -0.2383 0.0162987 0.00303819 -0.000871851 0.1091 -2.1688 -0.1362 -3.3216e-006 2.18448e-006 -1.78187e-006 0.6151 -8.0947 -3.564 -4.77083e-015 0 1.31198e-014 0.4882 -2.341 -0.6462 0.0145721 0.00367556 -0.00326408 0.3574 -1.7166 -0.4742 7.95139e-016 0 -2.38542e-015 1.4199 -1.8761 1.4221 -4.77083e-015 0 1.31198e-014 1.1472 -3.4929 2.6336 -7.15625e-015 3.18055e-015 9.54166e-015 0.8229 -2.3 1.6571 -1.86437e-006 1.36678e-006 -1.79533e-006 -9.412 3.9771 -0.7758 -51.8727 -73.2941 -81.8408 -0.7531 -40.938 0 -1.57422 35.0622 42.1512 1.42109e-014 -40.1986 0 -23.5001 -2.31695 -6.92266 3.55271e-015 -4.4182 9.23901 -2.80629e-008 1.15798e-009 4.2507e-007 9.4119 3.9773 -0.7758 54.5524 -71.6234 84.3332 0.7532 -40.9383 7.10543e-015 1.57415 34.9222 -42.172 0 -40.1986 -7.10543e-015 21.128 -2.46216 5.78005 0 -4.4182 9.239 6.71249e-008 2.22438e-009 -8.48992e-007 
39.8271 41.5639 18.7083 179.997 58.9947 3.03485e-009 0 8.7983 -4.7612 -0.0292048 8.97958 -0.0835645 -7.10543e-015 8.0291 0.4195 -0.0458181 17.9592 -0.165541 -7.10543e-015 9.9351 -2.2114 -0.0458182 17.9592 -0.165542 -7.10543e-015 22.3885 -0.4656 3.18161 0.702296 -0.638364 -0.0001 12.643 3.4389 6.10381e-008 0.0598549 7.90037e-007 2.2603 21.606 7.4023 -12.6683 -3.85873 -16.3525 13.5163 -1.1332 -5.0146 42.1447 12.7482 -35.5312 -0.0995 -28.05 -0.2431 0.40107 -14.9347 -35.8695 0.0679 -23.3996 -0.1402 2.46602 -0.64978 7.51584 0.7932 -9.069 2.5189 5.96506e-006 5.56374e-006 -1.52038e-006 -0.8272 -3.3923 0.5977 -4.35555e-006 8.40324e-006 2.07193e-006 -0.5649 -2.3158 0.4082 -1.04122e-006 8.79587e-006 3.77935e-006 0.9159 -9.2044 0.2193 5.96506e-006 5.56374e-006 -1.52038e-006 0.0117 -4.1944 -0.0248 -0.0128374 0.00232335 8.01531e-005 0.0071 -2.3249 -0.0142 -2.08402e-006 1.40377e-005 7.55862e-006 0.6113 -8.7231 -2.0637 5.96506e-006 5.56374e-006 -1.52038e-006 -0.1927 -3.8059 -0.2383 -0.0160928 0.00301254 0.000859354 -0.1091 -2.1688 -0.1362 5.96511e-006 5.19862e-006 -1.52006e-006 -0.6151 -8.0947 -3.5641 5.96506e-006 5.56374e-006 -1.52038e-006 -0.4882 -2.341 -0.6462 -0.0126182 0.00313456 0.00283018 -0.3575 -1.7167 -0.4742 2.17697e-006 6.50665e-006 4.8827e-006 -1.42 -1.8761 1.4223 5.96506e-006 5.56374e-006 -1.52038e-006 -1.1471 -3.4929 2.6334 -4.35555e-006 8.40324e-006 2.07193e-006 -0.823 -2.3 1.6571 -1.04122e-006 8.79587e-006 3.77935e-006 -2.2603 21.606 7.4023 5.87399 -4.92696 10.0131 -13.5187 -1.1334 -5.0155 -35.4293 8.40578 39.0788 0.0994 -28.0499 -0.2431 1.56721 -19.31 36.2429 -0.0679 -23.3996 -0.1402 -2.24234 5.61219 -5.48461 -0.7932 -9.0691 2.5189 7.95139e-016 -1.27222e-014 1.98785e-015 0.8272 -3.3923 0.5977 7.95139e-016 -1.59028e-014 1.19271e-015 0.565 -2.3158 0.4082 -7.59208e-006 6.66742e-006 8.05219e-007 -0.916 -9.2044 0.2193 7.95139e-016 -1.27222e-014 1.98785e-015 -0.0117 -4.1944 -0.0248 0.012902 0.00231517 -8.97263e-005 -0.0071 -2.3249 -0.0142 -9.43318e-007 6.28062e-006 4.35614e-006 -0.6113 -8.7231 -2.0637 7.95139e-016 -1.27222e-014 1.98785e-015 0.1927 -3.8059 -0.2383 0.0163255 0.00304343 -0.000878588 0.1091 -2.1688 -0.1362 -5.72803e-006 3.0038e-006 2.59715e-006 0.6151 -8.0947 -3.564 7.95139e-016 -1.27222e-014 1.98785e-015 0.4882 -2.341 -0.6462 0.0145854 0.00368384 -0.0032661 0.3574 -1.7166 -0.4742 -1.25569e-005 5.79568e-006 1.08752e-005 1.4199 -1.8761 1.4221 7.95139e-016 -1.27222e-014 1.98785e-015 1.1472 -3.4929 2.6336 7.95139e-016 -1.59028e-014 1.19271e-015 0.8229 -2.3 1.6571 -7.59208e-006 6.66742e-006 8.05219e-007 -9.412 3.9771 -0.7758 -52.0631 -73.1866 -82.0192 -0.7531 -40.938 3.55271e-015 -1.57398 35.0537 42.1517 0 -40.1986 0 -23.3681 -2.32647 -6.85963 7.10543e-015 -4.4182 9.239 2.84018e-008 -1.17251e-009 -4.25041e-007 9.4119 3.9773 -0.7758 54.5745 -71.6089 84.3534 0.7532 -40.9383 -3.55272e-015 1.57417 34.9216 -42.1721 1.77636e-015 -40.1986 0 21.127 -2.46189 5.77989 7.10543e-015 -4.4182 9.239 3.28278e-006 5.77401e-007 -9.64657e-008 
39.8279 41.564 18.708 179.997 58.9947 -4.41065e-008 7.10543e-015 8.7983 -4.7612 -0.0290216 8.9244 -0.0836421 0 8.0291 0.4195 -0.0455102 17.8489 -0.16572 7.10543e-015 9.9351 -2.2114 -0.0455102 17.8489 -0.165721 0 22.3885 -0.4656 3.32918 1.05381 -0.677788 -0.0001 12.643 3.4389 1.05215e-007 0.0595785 5.84977e-007 2.2603 21.606 7.4023 -12.949 -3.69945 -16.2444 13.5163 -1.1332 -5.0146 42.3624 12.7901 -35.5664 -0.0995 -28.05 -0.2431 0.401297 -14.9349 -35.8695 0.0679 -23.3996 -0.1402 2.40231 -0.717316 7.38664 0.7932 -9.069 2.5189 5.74995e-006 -1.63352e-005 -1.45776e-005 -0.8272 -3.3923 0.5977 1.80118e-006 1.98494e-005 1.75689e-006 -0.5649 -2.3158 0.4082 7.95139e-016 3.18055e-015 1.39149e-015 0.9159 -9.2044 0.2193 5.74995e-006 -1.63352e-005 -1.45776e-005 0.0117 -4.1944 -0.0248 -0.0127878 0.00234216 9.35406e-005 0.0071 -2.3249 -0.0142 -3.12681e-006 4.28174e-006 -4.92644e-007 0.6113 -8.7231 -2.0637 5.74995e-006 -1.63352e-005 -1.45776e-005 -0.1927 -3.8059 -0.2383 -0.0161002 0.00303182 0.000867599 -0.1091 -2.1688 -0.1362 -1.59028e-015 3.18055e-015 7.95139e-016 -0.6151 -8.0947 -3.5641 5.74995e-006 -1.63352e-005 -1.45776e-005 -0.4882 -2.341 -0.6462 -0.0126116 0.00315544 0.00283862 -0.3575 -1.7167 -0.4742 1.59028e-015 -2.22639e-014 -9.93923e-016 -1.42 -1.8761 1.4223 5.74995e-006 -1.63352e-005 -1.45776e-005 -1.1471 -3.4929 2.6334 1.80118e-006 1.98494e-005 1.75689e-006 -0.823 -2.3 1.6571 7.95139e-016 3.18055e-015 1.39149e-015 -2.2603 21.606 7.4023 6.12275 -4.73682 9.91599 -13.5187 -1.1334 -5.0155 -35.6174 8.42743 39.0928 0.0994 -28.0499 -0.2431 1.56725 -19.31 36.2429 -0.0679 -23.3996 -0.1402 -2.20301 5.54653 -5.3583 -0.7932 -9.0691 2.5189 -3.97569e-015 0 1.63003e-014 0.8272 -3.3923 0.5977 -3.97569e-015 -3.18055e-015 1.27222e-014 0.565 -2.3158 0.4082 -3.97569e-015 0 1.15295e-014 -0.916 -9.2044 0.2193 -3.97569e-015 0 1.63003e-014 -0.0117 -4.1944 -0.0248 0.0129308 0.00231861 -8.83779e-005 -0.0071 -2.3249 -0.0142 1.59028e-015 6.36111e-015 3.97569e-016 -0.6113 -8.7231 -2.0637 -3.97569e-015 0 1.63003e-014 0.1927 -3.8059 -0.2383 0.0163281 0.00305041 -0.000883125 0.1091 -2.1688 -0.1362 7.95139e-016 0 -1.19271e-015 0.6151 -8.0947 -3.564 -3.97569e-015 0 1.63003e-014 0.4882 -2.341 -0.6462 0.0145713 0.00368952 -0.00326509 0.3574 -1.7166 -0.4742 -3.18055e-015 -9.54166e-015 1.11319e-014 1.4199 -1.8761 1.4221 -3.97569e-015 0 1.63003e-014 1.1472 -3.4929 2.6336 -3.97569e-015 -3.18055e-015 1.27222e-014 0.8229 -2.3 1.6571 -3.97569e-015 0 1.15295e-014 -9.412 3.9771 -0.7758 -52.2506 -73.0788 -82.1947 -0.7531 -40.938 3.55271e-015 -1.57368 35.0449 42.1522 -1.42109e-014 -40.1986 0 -23.2361 -2.33584 -6.7966 -1.06581e-014 -4.4182 9.239 2.87408e-008 -4.27892e-007 -4.25012e-007 9.4119 3.9773 -0.7758 54.5967 -71.5943 84.3737 0.7532 -40.9383 -3.55271e-015 1.57414 34.9209 -42.1722 0 -40.1986 0 21.1259 -2.46154 5.77971 -7.10543e-015 -4.4182 9.23901 -2.5345e-015 -7.39007e-010 1.59028e-015 
